# xmcd
# Track frame offsets:
# 182
# 14910
# 28765
# 48080
# 61830
# 76455
# 97977
# 113952
# 127142
# 146987
#
# Disc length: 2154 seconds
# Revision: 2
# Processed by: cddbd v1.5.1PL2 Copyright (c) Steve Scherf et al.
# Submitted via: VisiTrax 2.10.0.248 - For more info visit www.synapsa.com
#
DISCID=8d08680a
DTITLE=Various Artist - Cool Country Hits Vol. 2
DYEAR=1997
DGENRE=Country
TTITLE0=Lyle Lovett - She's No Lady
TTITLE1=Junior Brown - My Wife Thinks You're Dead
TTITLE2=Hal Ketchum - Mama Knows The Highway
TTITLE3=Tim McGraw - Indian Outlaw
TTITLE4=Sawyer Brown - Some Girls Do
TTITLE5=Boy Howdy - A Cowboy's Born With A Broken Heart
TTITLE6=Jeff Carson - The Car
TTITLE7=Jo Dee Messina - You're Not In Kansas Anymore
TTITLE8=Hank Williams Jr. - Kawliga
TTITLE9=Wynonna - Girls With Guitars
EXTD=
EXTT0=
EXTT1=
EXTT2=
EXTT3=
EXTT4=
EXTT5=
EXTT6=
EXTT7=
EXTT8=
EXTT9=
PLAYORDER=
